HIERARCHY
ROOT Hips
{
	OFFSET 0.000000 0.000000 0.000000
	CHANNELS 6 Xposition Yposition Zposition Zrotation Yrotation Xrotation 
	JOINT LHipJoint
	{
		OFFSET 0.000000 0.000000 0.000000
		CHANNELS 3 Zrotation Yrotation Xrotation
		JOINT LeftUpLeg
		{
			OFFSET 1.363060 -1.794630 0.839290
			CHANNELS 3 Zrotation Yrotation Xrotation
			JOINT LeftLeg
			{
				OFFSET 2.448110 -6.726130 0.000000
				CHANNELS 3 Zrotation Yrotation Xrotation
				JOINT LeftFoot
				{
					OFFSET 2.562200 -7.039590 0.000000
					CHANNELS 3 Zrotation Yrotation Xrotation
					JOINT LeftToeBase
					{
						OFFSET 0.157640 -0.433110 2.322550
						CHANNELS 3 Zrotation Yrotation Xrotation
						End Site
						{
							OFFSET 0.000000 0.000000 0.000000
						}
					}
				}
			}
		}
	}
	JOINT RHipJoint
	{
		OFFSET 0.000000 0.000000 0.000000
		CHANNELS 3 Zrotation Yrotation Xrotation
		JOINT RightUpLeg
		{
			OFFSET -1.305520 -1.794630 0.839290
			CHANNELS 3 Zrotation Yrotation Xrotation
			JOINT RightLeg
			{
				OFFSET -2.542530 -6.985550 0.000000
				CHANNELS 3 Zrotation Yrotation Xrotation
				JOINT RightFoot
				{
					OFFSET -2.568260 -7.056230 0.000000
					CHANNELS 3 Zrotation Yrotation Xrotation
					JOINT RightToeBase
					{
						OFFSET -0.164730 -0.452590 2.363150
						CHANNELS 3 Zrotation Yrotation Xrotation
						End Site
						{
							OFFSET 0.000000 0.000000 0.000000
						}
					}
				}
			}
		}
	}
	JOINT LowerBack
	{
		OFFSET 0.000000 0.000000 0.000000
		CHANNELS 3 Zrotation Yrotation Xrotation
		JOINT Spine
		{
			OFFSET 0.028270 2.035590 -0.193380
			CHANNELS 3 Zrotation Yrotation Xrotation
			JOINT Spine1
			{
				OFFSET 0.056720 2.048850 -0.042750
				CHANNELS 3 Zrotation Yrotation Xrotation
				JOINT Neck
				{
					OFFSET 0.000000 0.000000 0.000000
					CHANNELS 3 Zrotation Yrotation Xrotation
					JOINT Neck1
					{
						OFFSET -0.054170 1.746240 0.172020
						CHANNELS 3 Zrotation Yrotation Xrotation
						JOINT Head
						{
							OFFSET 0.104070 1.761360 -0.123970
							CHANNELS 3 Zrotation Yrotation Xrotation
							End Site
							{
								OFFSET 0.000000 0.000000 0.000000
							}
						}
					}
				}
				JOINT LeftShoulder
				{
					OFFSET 0.000000 0.000000 0.000000
					CHANNELS 3 Zrotation Yrotation Xrotation
					JOINT LeftArm
					{
						OFFSET 3.362410 1.200890 -0.311210
						CHANNELS 3 Zrotation Yrotation Xrotation
						JOINT LeftForeArm
						{
							OFFSET 4.983000 -0.000000 -0.000000
							CHANNELS 3 Zrotation Yrotation Xrotation
							JOINT LeftHand
							{
								OFFSET 3.483560 -0.000000 -0.000000
								CHANNELS 3 Zrotation Yrotation Xrotation
								JOINT LeftFingerBase
								{
									OFFSET 0.000000 0.000000 0.000000
									CHANNELS 3 Zrotation Yrotation Xrotation
									JOINT LeftHandIndex1
									{
										OFFSET 0.715260 -0.000000 -0.000000
										CHANNELS 3 Zrotation Yrotation Xrotation
										End Site
										{
											OFFSET 0.000000 0.000000 0.000000
										}
									}
								}
								JOINT LThumb
								{
									OFFSET 0.000000 0.000000 0.000000
									CHANNELS 3 Zrotation Yrotation Xrotation
									End Site
									{
										OFFSET 0.000000 0.000000 0.000000
									}
								}
							}
						}
					}
				}
				JOINT RightShoulder
				{
					OFFSET 0.000000 0.000000 0.000000
					CHANNELS 3 Zrotation Yrotation Xrotation
					JOINT RightArm
					{
						OFFSET -3.136600 1.374050 -0.404650
						CHANNELS 3 Zrotation Yrotation Xrotation
						JOINT RightForeArm
						{
							OFFSET -5.241900 -0.000000 -0.000000
							CHANNELS 3 Zrotation Yrotation Xrotation
							JOINT RightHand
							{
								OFFSET -3.444170 -0.000000 -0.000000
								CHANNELS 3 Zrotation Yrotation Xrotation
								JOINT RightFingerBase
								{
									OFFSET 0.000000 0.000000 0.000000
									CHANNELS 3 Zrotation Yrotation Xrotation
									JOINT RightHandIndex1
									{
										OFFSET -0.622530 -0.000000 -0.000000
										CHANNELS 3 Zrotation Yrotation Xrotation
										End Site
										{
											OFFSET 0.000000 0.000000 0.000000
										}
									}
								}
								JOINT RThumb
								{
									OFFSET 0.000000 0.000000 0.000000
									CHANNELS 3 Zrotation Yrotation Xrotation
									End Site
									{
										OFFSET 0.000000 0.000000 0.000000
									}
								}
							}
						}
					}
				}
			}
		}
	}
}
MOTION
Frames: 11
Frame Time: 0.008333
0.206725 16.927284 1.396212 115.004576 88.381510 120.298514 1.908512 -3.802661 -3.576298 -12.599050 3.226765 -25.128137 5.590932 16.392851 46.889618 1.735488 -4.786763 -10.514947 0.016900 0.839800 2.308100 -5.327748 2.276866 -3.508758 14.772247 -0.095476 -29.532473 -6.673363 -17.072822 49.506097 -0.869166 1.262703 -18.041202 -0.006800 0.532700 -1.463900 1.799787 -0.289350 35.988894 -0.113215 1.678017 0.920301 -0.329788 1.410419 -3.417255 -6.085488 1.093481 -21.743194 1.449146 3.376613 8.246909 -0.128600 0.825900 12.423400 -8.538690 -3.556480 -0.699057 -71.731114 -15.826741 39.879257 21.344981 -34.705936 -7.658534 -0.351974 0.289819 -18.271599 22.948040 -10.325825 -4.558200 -7.125000 0.000000 0.000000 -2.733700 18.345500 1.736300 11.682429 4.581737 0.258652 57.808685 12.574090 27.751848 -29.919145 39.280902 -12.300191 1.438557 0.921064 -19.642332 -13.500673 -27.098730 7.079400 7.125000 0.000000 0.000000 16.700600 -57.319500 -5.135800 
0.205353 16.924857 1.393995 114.222339 88.446425 119.587885 1.903788 -3.814288 -3.581037 -12.540641 3.324206 -25.264238 5.615253 16.396418 46.957060 1.755154 -4.896004 -10.481213 0.018900 0.887300 2.438600 -5.338254 2.257417 -3.478942 14.814894 0.042102 -29.652073 -6.668622 -17.085161 49.504276 -0.860208 1.178495 -17.992555 -0.006400 0.517400 -1.421800 1.743655 -0.231963 35.880185 -0.076731 1.724539 0.838558 -0.170063 1.421130 -3.676260 -6.191024 1.128146 -21.013435 1.501288 3.361024 8.005169 -0.086300 0.832900 12.116500 -8.525626 -3.570719 -0.698362 -72.036050 -15.388161 39.799017 21.250344 -34.662831 -7.619174 -0.356655 0.290313 -18.153962 23.074546 -10.276035 -4.566600 -7.125000 0.000000 0.000000 -2.639000 18.386000 1.673700 11.675107 4.563223 0.246623 57.779747 12.198372 27.905227 -29.937713 39.294448 -12.266812 1.422988 0.876619 -19.575510 -13.652626 -26.171975 6.910200 7.125000 0.000000 0.000000 16.012600 -56.424700 -4.567400 
0.209785 16.927073 1.392518 115.540559 88.384709 120.865284 1.907729 -3.795536 -3.570092 -12.578805 3.290178 -25.231860 5.627019 16.417241 47.004044 1.791036 -5.059017 -10.542786 0.034600 1.200500 3.300700 -5.329804 2.279287 -3.498206 14.767843 -0.013875 -29.549653 -6.670839 -17.072856 49.501789 -0.863159 1.129979 -18.051159 -0.005000 0.457700 -1.257700 1.746442 -0.260617 35.897781 -0.086173 1.683469 0.852200 -0.169288 1.404228 -3.644031 -6.340985 1.039371 -21.043009 1.650835 3.287423 7.795925 0.021600 0.808600 11.997600 -8.539428 -3.547202 -0.697950 -72.134201 -15.426983 39.728270 21.161048 -34.575593 -7.570794 -0.351152 0.291636 -18.156272 22.932503 -10.371544 -4.574200 -7.125000 0.000000 0.000000 -2.747000 18.296500 1.747800 11.657764 4.579812 0.260746 57.793741 12.244024 27.917036 -29.957734 39.284363 -12.233611 1.414199 0.829294 -19.520250 -13.831237 -25.298156 6.761100 7.125000 0.000000 0.000000 15.353500 -55.574600 -4.053800 
0.206514 16.924752 1.386925 110.661135 88.463701 116.050609 1.895004 -3.865236 -3.608391 -12.578340 3.458696 -25.321830 5.649839 16.402620 47.054166 1.786558 -5.009599 -10.618569 0.041400 1.313600 3.612100 -5.353186 2.208627 -3.447438 14.766007 0.231007 -29.690959 -6.659725 -17.106869 49.498396 -0.854800 1.121453 -17.973464 -0.008200 0.585900 -1.610100 1.718743 -0.217294 35.861699 -0.097388 1.744037 0.845210 -0.213568 1.425045 -3.671502 -6.337631 1.044552 -21.042759 1.657660 3.274428 7.613649 0.028000 0.806300 11.894200 -8.539746 -3.558691 -0.691782 -72.190603 -15.412488 39.640589 21.100395 -34.517824 -7.541309 -0.341180 0.296542 -18.153781 22.786772 -10.619644 -4.643300 -7.125000 0.000000 0.000000 -2.867400 18.041000 1.840700 11.650727 4.570200 0.261986 57.831854 12.254223 27.990464 -29.993829 39.313246 -12.252906 1.415028 0.831117 -19.485964 -13.778196 -25.361477 6.753600 7.125000 0.000000 0.000000 15.441600 -55.628400 -4.098300 
0.205564 16.923696 1.384815 109.193854 88.515253 114.608285 1.888100 -3.886430 -3.621509 -12.539359 3.521218 -25.363886 5.656552 16.394702 47.064907 1.783768 -4.996744 -10.609887 0.041300 1.311500 3.606200 -5.369597 2.186146 -3.432034 14.804232 0.336975 -29.733778 -6.652064 -17.118295 49.485225 -0.847599 1.083066 -17.917822 -0.014300 0.772500 -2.123000 1.713633 -0.184913 35.829376 -0.084176 1.794269 0.846525 -0.183890 1.443513 -3.672346 -6.323917 1.081235 -21.026454 1.578090 3.297431 7.436791 -0.013900 0.809900 11.788900 -8.523716 -3.571780 -0.682181 -72.330722 -15.425171 39.615761 21.016644 -34.443911 -7.498484 -0.337105 0.303179 -18.054881 22.787699 -10.752328 -4.699500 -7.125000 0.000000 0.000000 -2.876100 17.892700 1.855700 11.657745 4.553012 0.261588 57.825151 12.263387 27.983472 -30.004579 39.324143 -12.267641 1.416612 0.840140 -19.454731 -13.726969 -25.540288 6.777600 7.125000 0.000000 0.000000 15.590500 -55.800500 -4.204900 
0.208308 16.924329 1.382704 108.362696 88.529362 113.775789 1.881229 -3.899818 -3.628689 -12.532356 3.549560 -25.367701 5.661452 16.393087 47.076166 1.785850 -4.999790 -10.630397 0.039600 1.284300 3.531400 -5.381217 2.174041 -3.428842 14.815455 0.374634 -29.719384 -6.647359 -17.121976 49.474340 -0.847770 1.079361 -17.925240 -0.013000 0.736100 -2.023000 1.718160 -0.148545 35.763088 -0.070407 1.848537 0.851860 -0.146069 1.465335 -3.662321 -6.375462 1.109227 -20.852044 1.529471 3.307757 7.161206 -0.024800 0.810700 11.586200 -8.511564 -3.578649 -0.667940 -72.508326 -15.423065 39.629378 20.875558 -34.323160 -7.430011 -0.330926 0.319015 -17.912673 22.916581 -11.134160 -4.891200 -7.125000 0.000000 0.000000 -2.809500 17.455000 1.839600 11.660247 4.530386 0.264000 57.819285 12.213189 27.888624 -30.005719 39.335390 -12.285855 1.419317 0.845724 -19.461763 -13.794669 -25.700187 6.850100 7.125000 0.000000 0.000000 15.605200 -55.972000 -4.274500 
0.210840 16.926229 1.379538 107.061149 88.562737 112.458143 1.871788 -3.916251 -3.633272 -12.519475 3.570416 -25.325634 5.666852 16.389388 47.087507 1.783046 -4.965878 -10.686101 0.036600 1.234900 3.395400 -5.394878 2.156975 -3.422959 14.849126 0.401432 -29.683963 -6.644112 -17.128710 49.469600 -0.852056 1.108345 -17.961522 -0.008000 0.576400 -1.583900 1.782883 -0.118314 35.758306 -0.074169 1.908854 0.844866 -0.205155 1.495265 -3.711272 -6.423398 1.123478 -20.699419 1.530286 3.304975 6.920935 -0.006300 0.811400 11.414800 -8.511445 -3.583093 -0.659895 -72.607416 -15.338586 39.725957 20.793523 -34.258265 -7.394799 -0.322984 0.339083 -17.851939 23.144829 -11.724330 -5.197000 -7.125000 0.000000 0.000000 -2.688000 16.777700 1.799600 11.653830 4.520870 0.264929 57.846460 12.078309 27.833132 -30.048794 39.381600 -12.325986 1.422769 0.842033 -19.562589 -14.007151 -25.729112 6.954100 7.125000 0.000000 0.000000 15.395400 -56.032900 -4.238000 
0.210629 16.926123 1.376373 105.579495 88.580118 110.980692 1.862318 -3.936537 -3.641540 -12.519041 3.586598 -25.310539 5.672374 16.387034 47.102145 1.773565 -4.909281 -10.712983 0.031800 1.150700 3.163600 -5.406184 2.136136 -3.411163 14.856952 0.453758 -29.705983 -6.644712 -17.140643 49.482542 -0.850748 1.098414 -17.954992 -0.011000 0.677000 -1.860500 1.804766 -0.109385 35.742814 -0.087020 1.924554 0.845056 -0.282309 1.504951 -3.712026 -6.358661 1.202341 -20.764307 1.487770 3.380113 6.798902 -0.024700 0.844800 11.361400 -8.510509 -3.591301 -0.655063 -72.586072 -15.273975 39.841080 20.793052 -34.262831 -7.394933 -0.327734 0.342105 -18.017701 23.298135 -11.834806 -5.284500 -7.125000 0.000000 0.000000 -2.585600 16.636900 1.738900 11.650648 4.512245 0.265637 57.933325 12.060650 27.843129 -30.061068 39.392435 -12.328865 1.426880 0.827190 -19.585170 -14.207519 -25.606155 7.011300 7.125000 0.000000 0.000000 15.114600 -55.935900 -4.122300 
0.208941 16.922113 1.373312 104.295120 88.526772 109.738984 1.852674 -3.959979 -3.651613 -12.588392 3.626672 -25.361166 5.664004 16.379068 47.076009 1.761836 -4.875251 -10.649297 0.028300 1.085500 2.984200 -5.408334 2.115351 -3.396767 14.769993 0.484814 -29.791114 -6.648652 -17.146246 49.499983 -0.848388 1.121343 -17.913795 -0.016100 0.818700 -2.250000 1.693737 -0.124555 35.645880 -0.095487 1.862088 0.848318 -0.260041 1.472063 -3.663323 -6.269804 1.346546 -20.871879 1.466151 3.539358 6.668031 -0.029600 0.919800 11.308500 -8.508722 -3.597715 -0.648897 -72.540139 -15.241676 39.784518 20.782499 -34.257146 -7.391436 -0.337055 0.336364 -18.189705 23.338601 -11.664380 -5.223900 -7.125000 0.000000 0.000000 -2.542300 16.818700 1.699600 11.646830 4.499687 0.269972 58.040064 12.157141 27.952805 -30.044996 39.375574 -12.303948 1.433226 0.809998 -19.450995 -14.361596 -25.513819 7.054900 7.125000 0.000000 0.000000 14.899000 -55.861100 -4.034300 
0.209047 16.920953 1.369619 103.500197 88.461941 108.943978 1.842931 -3.974246 -3.650230 -12.671340 3.643587 -25.353353 5.655381 16.374130 47.050883 1.758939 -4.878836 -10.606753 0.027800 1.077200 2.961300 -5.405109 2.102070 -3.389590 14.678788 0.431197 -29.811682 -6.655575 -17.143853 49.518422 -0.849140 1.187351 -17.879845 -0.012700 0.727400 -1.999000 1.592869 -0.141696 35.629213 -0.101992 1.799445 0.826927 -0.228975 1.441090 -3.737584 -6.225756 1.443478 -20.764926 1.505794 3.623242 6.461448 -0.003700 0.970600 11.170200 -8.510457 -3.604288 -0.643360 -72.606252 -15.173519 39.642478 20.680586 -34.165291 -7.341005 -0.340265 0.333151 -18.165572 23.280692 -11.546230 -5.159600 -7.125000 0.000000 0.000000 -2.573600 16.954600 1.713000 11.634261 4.495478 0.272033 58.128447 12.108139 28.132217 -30.084028 39.414435 -12.325226 1.441560 0.802239 -19.375635 -14.569608 -25.610485 7.174800 7.125000 0.000000 0.000000 14.726400 -55.986600 -4.031300 
0.220865 16.930239 1.373101 115.775210 88.290080 120.914254 1.891937 -3.792721 -3.542705 -12.728887 3.182505 -24.974721 5.607082 16.419521 46.961015 1.758112 -4.893324 -10.560453 0.019200 0.894200 2.457800 -5.324753 2.285999 -3.522556 14.647716 -0.200507 -29.262348 -6.679273 -17.052797 49.510146 -0.869571 1.143597 -18.110335 -0.009700 0.635400 -1.746100 1.675272 -0.308395 35.903355 -0.098369 1.574661 0.824653 -0.206983 1.370846 -3.859657 -6.130802 1.530879 -20.512269 1.474911 3.651185 6.211321 -0.033400 0.994600 10.978400 -8.511385 -3.591808 -0.636574 -72.674040 -15.106000 39.589660 20.568811 -34.062592 -7.280872 -0.339269 0.329454 -18.129919 23.132257 -11.468083 -5.088800 -7.125000 0.000000 0.000000 -2.672700 17.058500 1.773000 11.624788 4.507757 0.282889 58.267449 12.013038 28.171573 -30.145011 39.473536 -12.369599 1.445024 0.802806 -19.308542 -14.592905 -25.802122 7.236100 7.125000 0.000000 0.000000 14.802100 -56.178400 -4.122000 
